<svg xmlns="http://www.w3.org/2000/svg" xmlns:xlink="http://www.w3.org/1999/xlink" width="500" zoomAndPan="magnify" viewBox="0 0 375 374.999991" height="500" preserveAspectRatio="xMidYMid meet" version="1.0"><defs><g/></defs><g fill="#b8f48f" fill-opacity="0.302"><g transform="translate(48.695607, 207.536515)"><g><path d="M 6.539062 -36.835938 L 0.507812 -36.835938 C 0.230469 -36.835938 0 -36.605469 0 -36.421875 L 0 -21.960938 L 7.042969 -21.960938 L 7.042969 -30.113281 C 15.054688 -30.527344 20.996094 -27.164062 20.996094 -18.417969 C 20.996094 -7.042969 11.511719 -6.585938 7.042969 -6.769531 L 7.042969 -14.871094 L 0 -14.871094 L 0 -0.414062 C 0 -0.230469 0.230469 0 0.507812 0 L 6.539062 0 C 15.699219 0 28.085938 -2.671875 28.085938 -18.417969 C 28.085938 -34.761719 15.515625 -36.835938 6.539062 -36.835938 Z M 6.539062 -36.835938 "/></g></g></g><g fill="#b8f48f" fill-opacity="0.302"><g transform="translate(78.206996, 207.536515)"><g><path d="M 17.496094 -6.859375 L 7.042969 -6.859375 L 7.042969 -15.148438 L 21.503906 -15.148438 C 21.777344 -15.148438 22.007812 -15.378906 22.007812 -15.5625 L 22.007812 -21.410156 C 22.007812 -21.640625 21.777344 -21.824219 21.503906 -21.824219 L 7.042969 -21.824219 L 7.042969 -30.160156 L 17.496094 -30.160156 L 17.496094 -36.835938 L 0.507812 -36.835938 C 0.230469 -36.835938 0 -36.605469 0 -36.421875 L 0 -0.414062 C 0 -0.230469 0.230469 0 0.507812 0 L 17.496094 0 Z M 17.496094 -6.859375 "/></g></g></g><g fill="#b8f48f" fill-opacity="0.302"><g transform="translate(101.318875, 207.536515)"><g><path d="M 19.199219 -29.972656 L 14.367188 -16.484375 L 7.183594 -36.558594 C 7.136719 -36.742188 6.953125 -36.835938 6.722656 -36.835938 L 0.460938 -36.835938 C 0.09375 -36.835938 -0.09375 -36.558594 0.046875 -36.28125 L 13.90625 -0.230469 C 14.089844 0.09375 14.640625 0.09375 14.78125 -0.230469 L 26.289062 -29.972656 Z M 19.199219 -29.972656 "/></g></g></g><g fill="#b8f48f" fill-opacity="0.302"><g transform="translate(128.942626, 207.536515)"><g><path d="M 23.984375 -5.34375 L 2.296875 -14.875 L 2.296875 -17.171875 L 23.984375 -28 L 23.984375 -24.40625 L 6.625 -16.203125 L 23.984375 -8.9375 Z M 23.984375 -5.34375 "/></g></g></g><g fill="#b8f48f" fill-opacity="0.302"><g transform="translate(155.277276, 207.536515)"><g><path d="M 17.957031 -25.875 C 17.957031 -21.824219 12.523438 -21.824219 12.523438 -21.824219 L 7 -21.824219 L 7 -30.25 L 12.523438 -30.25 C 12.523438 -30.25 17.957031 -30.296875 17.957031 -25.875 Z M 25 -26.289062 C 25 -37.109375 12.523438 -36.835938 12.523438 -36.835938 L 0.507812 -36.835938 C 0.230469 -36.835938 0 -36.605469 0 -36.421875 L 0 -14.964844 L 12.523438 -14.964844 C 12.523438 -14.964844 18.464844 -15.242188 18.464844 -10.914062 C 18.464844 -7.367188 14.824219 -6.722656 12.523438 -6.722656 L 7.042969 -6.722656 L 7.042969 0 L 12.523438 0 C 15.011719 0 25.507812 -0.460938 25.507812 -10.726562 C 25.507812 -10.726562 25.738281 -16.4375 19.890625 -18.417969 C 22.699219 -19.570312 25 -22.007812 25 -26.289062 Z M 25 -26.289062 "/></g></g></g><g fill="#b8f48f" fill-opacity="0.302"><g transform="translate(182.072318, 207.536515)"><g><path d="M 25.140625 -0.597656 C 22.835938 -5.710938 20.351562 -10.773438 18.050781 -15.976562 C 21.734375 -17.3125 24.816406 -20.257812 24.816406 -25.875 C 24.816406 -36.742188 14.457031 -36.835938 12.386719 -36.835938 L 0.460938 -36.835938 C 0.230469 -36.835938 0 -36.605469 0 -36.421875 L 0 -30.160156 L 12.386719 -30.160156 C 13.492188 -30.160156 17.820312 -29.929688 17.820312 -25.875 C 17.820312 -21.824219 13.90625 -21.640625 12.386719 -21.640625 L 0 -21.640625 L 0 -0.414062 C 0 -0.230469 0.230469 0 0.460938 0 L 6.492188 0 C 6.769531 0 7 -0.230469 7 -0.414062 L 7 -14.871094 L 10.957031 -14.871094 L 17.679688 -0.277344 C 17.726562 -0.136719 18.003906 0 18.140625 0 L 24.726562 0 C 25.09375 0 25.277344 -0.277344 25.140625 -0.597656 Z M 25.140625 -0.597656 "/></g></g></g><g fill="#b8f48f" fill-opacity="0.302"><g transform="translate(208.545078, 207.536515)"><g><path d="M 28.914062 -0.550781 L 14.917969 -36.558594 C 14.78125 -36.925781 14.136719 -36.925781 13.996094 -36.558594 L 0.046875 -0.550781 C -0.09375 -0.277344 0.09375 0 0.507812 0 L 6.816406 0 C 7 0 7.230469 -0.09375 7.273438 -0.277344 L 14.457031 -20.8125 L 21.734375 -0.277344 C 21.777344 -0.09375 22.007812 0 22.148438 0 L 28.5 0 C 28.824219 0 29.054688 -0.277344 28.914062 -0.550781 Z M 28.914062 -0.550781 "/></g></g></g><g fill="#b8f48f" fill-opacity="0.302"><g transform="translate(238.931205, 207.536515)"><g><path d="M 38.261719 -30.066406 L 33.566406 -17.40625 L 26.289062 -36.558594 C 26.199219 -36.742188 26.015625 -36.835938 25.832031 -36.835938 L 19.570312 -36.835938 C 19.382812 -36.835938 19.199219 -36.742188 19.152344 -36.558594 L 11.832031 -17.40625 L 7.183594 -30.066406 L 0 -30.066406 L 11.417969 -0.277344 C 11.558594 0.09375 12.15625 0.09375 12.292969 -0.277344 L 22.699219 -27.582031 L 33.105469 -0.277344 C 33.242188 0.09375 33.84375 0.09375 33.980469 -0.277344 L 45.445312 -30.066406 Z M 38.261719 -30.066406 "/></g></g></g><g fill="#b8f48f" fill-opacity="0.302"><g transform="translate(286.628223, 207.536515)"><g><path d="M 19.890625 -6.859375 L 0 -6.859375 L 0 -0.414062 C 0 -0.230469 0.230469 0 0.507812 0 L 19.890625 0 C 20.214844 0 20.398438 -0.230469 20.398438 -0.414062 L 20.398438 -6.398438 C 20.398438 -6.628906 20.214844 -6.859375 19.890625 -6.859375 Z M 7.042969 -13.90625 L 7.042969 -36.421875 C 7.042969 -36.605469 6.859375 -36.835938 6.585938 -36.835938 L 0.507812 -36.835938 C 0.230469 -36.835938 0 -36.605469 0 -36.421875 L 0 -13.90625 Z M 7.042969 -13.90625 "/></g></g></g><g fill="#b8f48f" fill-opacity="0.302"><g transform="translate(308.08267, 207.536515)"><g><path d="M 2.296875 -8.9375 L 19.65625 -16.15625 L 2.296875 -24.40625 L 2.296875 -28 L 23.984375 -17.171875 L 23.984375 -14.875 L 2.296875 -5.34375 Z M 2.296875 -8.9375 "/></g></g></g><g fill="#b8f48f" fill-opacity="0.502"><g transform="translate(46.660424, 205.501334)"><g><path d="M 6.539062 -36.835938 L 0.507812 -36.835938 C 0.230469 -36.835938 0 -36.605469 0 -36.421875 L 0 -21.960938 L 7.042969 -21.960938 L 7.042969 -30.113281 C 15.054688 -30.527344 20.996094 -27.164062 20.996094 -18.417969 C 20.996094 -7.042969 11.511719 -6.585938 7.042969 -6.769531 L 7.042969 -14.871094 L 0 -14.871094 L 0 -0.414062 C 0 -0.230469 0.230469 0 0.507812 0 L 6.539062 0 C 15.699219 0 28.085938 -2.671875 28.085938 -18.417969 C 28.085938 -34.761719 15.515625 -36.835938 6.539062 -36.835938 Z M 6.539062 -36.835938 "/></g></g></g><g fill="#b8f48f" fill-opacity="0.502"><g transform="translate(76.171813, 205.501334)"><g><path d="M 17.496094 -6.859375 L 7.042969 -6.859375 L 7.042969 -15.148438 L 21.503906 -15.148438 C 21.777344 -15.148438 22.007812 -15.378906 22.007812 -15.5625 L 22.007812 -21.410156 C 22.007812 -21.640625 21.777344 -21.824219 21.503906 -21.824219 L 7.042969 -21.824219 L 7.042969 -30.160156 L 17.496094 -30.160156 L 17.496094 -36.835938 L 0.507812 -36.835938 C 0.230469 -36.835938 0 -36.605469 0 -36.421875 L 0 -0.414062 C 0 -0.230469 0.230469 0 0.507812 0 L 17.496094 0 Z M 17.496094 -6.859375 "/></g></g></g><g fill="#b8f48f" fill-opacity="0.502"><g transform="translate(99.283692, 205.501334)"><g><path d="M 19.199219 -29.972656 L 14.367188 -16.484375 L 7.183594 -36.558594 C 7.136719 -36.742188 6.953125 -36.835938 6.722656 -36.835938 L 0.460938 -36.835938 C 0.09375 -36.835938 -0.09375 -36.558594 0.046875 -36.28125 L 13.90625 -0.230469 C 14.089844 0.09375 14.640625 0.09375 14.78125 -0.230469 L 26.289062 -29.972656 Z M 19.199219 -29.972656 "/></g></g></g><g fill="#b8f48f" fill-opacity="0.502"><g transform="translate(126.907443, 205.501334)"><g><path d="M 23.984375 -5.34375 L 2.296875 -14.875 L 2.296875 -17.171875 L 23.984375 -28 L 23.984375 -24.40625 L 6.625 -16.203125 L 23.984375 -8.9375 Z M 23.984375 -5.34375 "/></g></g></g><g fill="#b8f48f" fill-opacity="0.502"><g transform="translate(153.242092, 205.501334)"><g><path d="M 17.957031 -25.875 C 17.957031 -21.824219 12.523438 -21.824219 12.523438 -21.824219 L 7 -21.824219 L 7 -30.25 L 12.523438 -30.25 C 12.523438 -30.25 17.957031 -30.296875 17.957031 -25.875 Z M 25 -26.289062 C 25 -37.109375 12.523438 -36.835938 12.523438 -36.835938 L 0.507812 -36.835938 C 0.230469 -36.835938 0 -36.605469 0 -36.421875 L 0 -14.964844 L 12.523438 -14.964844 C 12.523438 -14.964844 18.464844 -15.242188 18.464844 -10.914062 C 18.464844 -7.367188 14.824219 -6.722656 12.523438 -6.722656 L 7.042969 -6.722656 L 7.042969 0 L 12.523438 0 C 15.011719 0 25.507812 -0.460938 25.507812 -10.726562 C 25.507812 -10.726562 25.738281 -16.4375 19.890625 -18.417969 C 22.699219 -19.570312 25 -22.007812 25 -26.289062 Z M 25 -26.289062 "/></g></g></g><g fill="#b8f48f" fill-opacity="0.502"><g transform="translate(180.037135, 205.501334)"><g><path d="M 25.140625 -0.597656 C 22.835938 -5.710938 20.351562 -10.773438 18.050781 -15.976562 C 21.734375 -17.3125 24.816406 -20.257812 24.816406 -25.875 C 24.816406 -36.742188 14.457031 -36.835938 12.386719 -36.835938 L 0.460938 -36.835938 C 0.230469 -36.835938 0 -36.605469 0 -36.421875 L 0 -30.160156 L 12.386719 -30.160156 C 13.492188 -30.160156 17.820312 -29.929688 17.820312 -25.875 C 17.820312 -21.824219 13.90625 -21.640625 12.386719 -21.640625 L 0 -21.640625 L 0 -0.414062 C 0 -0.230469 0.230469 0 0.460938 0 L 6.492188 0 C 6.769531 0 7 -0.230469 7 -0.414062 L 7 -14.871094 L 10.957031 -14.871094 L 17.679688 -0.277344 C 17.726562 -0.136719 18.003906 0 18.140625 0 L 24.726562 0 C 25.09375 0 25.277344 -0.277344 25.140625 -0.597656 Z M 25.140625 -0.597656 "/></g></g></g><g fill="#b8f48f" fill-opacity="0.502"><g transform="translate(206.509895, 205.501334)"><g><path d="M 28.914062 -0.550781 L 14.917969 -36.558594 C 14.78125 -36.925781 14.136719 -36.925781 13.996094 -36.558594 L 0.046875 -0.550781 C -0.09375 -0.277344 0.09375 0 0.507812 0 L 6.816406 0 C 7 0 7.230469 -0.09375 7.273438 -0.277344 L 14.457031 -20.8125 L 21.734375 -0.277344 C 21.777344 -0.09375 22.007812 0 22.148438 0 L 28.5 0 C 28.824219 0 29.054688 -0.277344 28.914062 -0.550781 Z M 28.914062 -0.550781 "/></g></g></g><g fill="#b8f48f" fill-opacity="0.502"><g transform="translate(236.896022, 205.501334)"><g><path d="M 38.261719 -30.066406 L 33.566406 -17.40625 L 26.289062 -36.558594 C 26.199219 -36.742188 26.015625 -36.835938 25.832031 -36.835938 L 19.570312 -36.835938 C 19.382812 -36.835938 19.199219 -36.742188 19.152344 -36.558594 L 11.832031 -17.40625 L 7.183594 -30.066406 L 0 -30.066406 L 11.417969 -0.277344 C 11.558594 0.09375 12.15625 0.09375 12.292969 -0.277344 L 22.699219 -27.582031 L 33.105469 -0.277344 C 33.242188 0.09375 33.84375 0.09375 33.980469 -0.277344 L 45.445312 -30.066406 Z M 38.261719 -30.066406 "/></g></g></g><g fill="#b8f48f" fill-opacity="0.502"><g transform="translate(284.59304, 205.501334)"><g><path d="M 19.890625 -6.859375 L 0 -6.859375 L 0 -0.414062 C 0 -0.230469 0.230469 0 0.507812 0 L 19.890625 0 C 20.214844 0 20.398438 -0.230469 20.398438 -0.414062 L 20.398438 -6.398438 C 20.398438 -6.628906 20.214844 -6.859375 19.890625 -6.859375 Z M 7.042969 -13.90625 L 7.042969 -36.421875 C 7.042969 -36.605469 6.859375 -36.835938 6.585938 -36.835938 L 0.507812 -36.835938 C 0.230469 -36.835938 0 -36.605469 0 -36.421875 L 0 -13.90625 Z M 7.042969 -13.90625 "/></g></g></g><g fill="#b8f48f" fill-opacity="0.502"><g transform="translate(306.047486, 205.501334)"><g><path d="M 2.296875 -8.9375 L 19.65625 -16.15625 L 2.296875 -24.40625 L 2.296875 -28 L 23.984375 -17.171875 L 23.984375 -14.875 L 2.296875 -5.34375 Z M 2.296875 -8.9375 "/></g></g></g><g fill="#ffffff" fill-opacity="1"><g transform="translate(44.625241, 203.466153)"><g><path d="M 6.539062 -36.835938 L 0.507812 -36.835938 C 0.230469 -36.835938 0 -36.605469 0 -36.421875 L 0 -21.960938 L 7.042969 -21.960938 L 7.042969 -30.113281 C 15.054688 -30.527344 20.996094 -27.164062 20.996094 -18.417969 C 20.996094 -7.042969 11.511719 -6.585938 7.042969 -6.769531 L 7.042969 -14.871094 L 0 -14.871094 L 0 -0.414062 C 0 -0.230469 0.230469 0 0.507812 0 L 6.539062 0 C 15.699219 0 28.085938 -2.671875 28.085938 -18.417969 C 28.085938 -34.761719 15.515625 -36.835938 6.539062 -36.835938 Z M 6.539062 -36.835938 "/></g></g></g><g fill="#ffffff" fill-opacity="1"><g transform="translate(74.13663, 203.466153)"><g><path d="M 17.496094 -6.859375 L 7.042969 -6.859375 L 7.042969 -15.148438 L 21.503906 -15.148438 C 21.777344 -15.148438 22.007812 -15.378906 22.007812 -15.5625 L 22.007812 -21.410156 C 22.007812 -21.640625 21.777344 -21.824219 21.503906 -21.824219 L 7.042969 -21.824219 L 7.042969 -30.160156 L 17.496094 -30.160156 L 17.496094 -36.835938 L 0.507812 -36.835938 C 0.230469 -36.835938 0 -36.605469 0 -36.421875 L 0 -0.414062 C 0 -0.230469 0.230469 0 0.507812 0 L 17.496094 0 Z M 17.496094 -6.859375 "/></g></g></g><g fill="#ffffff" fill-opacity="1"><g transform="translate(97.248509, 203.466153)"><g><path d="M 19.199219 -29.972656 L 14.367188 -16.484375 L 7.183594 -36.558594 C 7.136719 -36.742188 6.953125 -36.835938 6.722656 -36.835938 L 0.460938 -36.835938 C 0.09375 -36.835938 -0.09375 -36.558594 0.046875 -36.28125 L 13.90625 -0.230469 C 14.089844 0.09375 14.640625 0.09375 14.78125 -0.230469 L 26.289062 -29.972656 Z M 19.199219 -29.972656 "/></g></g></g><g fill="#ffffff" fill-opacity="1"><g transform="translate(124.87226, 203.466153)"><g><path d="M 23.984375 -5.34375 L 2.296875 -14.875 L 2.296875 -17.171875 L 23.984375 -28 L 23.984375 -24.40625 L 6.625 -16.203125 L 23.984375 -8.9375 Z M 23.984375 -5.34375 "/></g></g></g><g fill="#ffffff" fill-opacity="1"><g transform="translate(151.206909, 203.466153)"><g><path d="M 17.957031 -25.875 C 17.957031 -21.824219 12.523438 -21.824219 12.523438 -21.824219 L 7 -21.824219 L 7 -30.25 L 12.523438 -30.25 C 12.523438 -30.25 17.957031 -30.296875 17.957031 -25.875 Z M 25 -26.289062 C 25 -37.109375 12.523438 -36.835938 12.523438 -36.835938 L 0.507812 -36.835938 C 0.230469 -36.835938 0 -36.605469 0 -36.421875 L 0 -14.964844 L 12.523438 -14.964844 C 12.523438 -14.964844 18.464844 -15.242188 18.464844 -10.914062 C 18.464844 -7.367188 14.824219 -6.722656 12.523438 -6.722656 L 7.042969 -6.722656 L 7.042969 0 L 12.523438 0 C 15.011719 0 25.507812 -0.460938 25.507812 -10.726562 C 25.507812 -10.726562 25.738281 -16.4375 19.890625 -18.417969 C 22.699219 -19.570312 25 -22.007812 25 -26.289062 Z M 25 -26.289062 "/></g></g></g><g fill="#ffffff" fill-opacity="1"><g transform="translate(178.001952, 203.466153)"><g><path d="M 25.140625 -0.597656 C 22.835938 -5.710938 20.351562 -10.773438 18.050781 -15.976562 C 21.734375 -17.3125 24.816406 -20.257812 24.816406 -25.875 C 24.816406 -36.742188 14.457031 -36.835938 12.386719 -36.835938 L 0.460938 -36.835938 C 0.230469 -36.835938 0 -36.605469 0 -36.421875 L 0 -30.160156 L 12.386719 -30.160156 C 13.492188 -30.160156 17.820312 -29.929688 17.820312 -25.875 C 17.820312 -21.824219 13.90625 -21.640625 12.386719 -21.640625 L 0 -21.640625 L 0 -0.414062 C 0 -0.230469 0.230469 0 0.460938 0 L 6.492188 0 C 6.769531 0 7 -0.230469 7 -0.414062 L 7 -14.871094 L 10.957031 -14.871094 L 17.679688 -0.277344 C 17.726562 -0.136719 18.003906 0 18.140625 0 L 24.726562 0 C 25.09375 0 25.277344 -0.277344 25.140625 -0.597656 Z M 25.140625 -0.597656 "/></g></g></g><g fill="#ffffff" fill-opacity="1"><g transform="translate(204.474711, 203.466153)"><g><path d="M 28.914062 -0.550781 L 14.917969 -36.558594 C 14.78125 -36.925781 14.136719 -36.925781 13.996094 -36.558594 L 0.046875 -0.550781 C -0.09375 -0.277344 0.09375 0 0.507812 0 L 6.816406 0 C 7 0 7.230469 -0.09375 7.273438 -0.277344 L 14.457031 -20.8125 L 21.734375 -0.277344 C 21.777344 -0.09375 22.007812 0 22.148438 0 L 28.5 0 C 28.824219 0 29.054688 -0.277344 28.914062 -0.550781 Z M 28.914062 -0.550781 "/></g></g></g><g fill="#ffffff" fill-opacity="1"><g transform="translate(234.860839, 203.466153)"><g><path d="M 38.261719 -30.066406 L 33.566406 -17.40625 L 26.289062 -36.558594 C 26.199219 -36.742188 26.015625 -36.835938 25.832031 -36.835938 L 19.570312 -36.835938 C 19.382812 -36.835938 19.199219 -36.742188 19.152344 -36.558594 L 11.832031 -17.40625 L 7.183594 -30.066406 L 0 -30.066406 L 11.417969 -0.277344 C 11.558594 0.09375 12.15625 0.09375 12.292969 -0.277344 L 22.699219 -27.582031 L 33.105469 -0.277344 C 33.242188 0.09375 33.84375 0.09375 33.980469 -0.277344 L 45.445312 -30.066406 Z M 38.261719 -30.066406 "/></g></g></g><g fill="#ffffff" fill-opacity="1"><g transform="translate(282.557857, 203.466153)"><g><path d="M 19.890625 -6.859375 L 0 -6.859375 L 0 -0.414062 C 0 -0.230469 0.230469 0 0.507812 0 L 19.890625 0 C 20.214844 0 20.398438 -0.230469 20.398438 -0.414062 L 20.398438 -6.398438 C 20.398438 -6.628906 20.214844 -6.859375 19.890625 -6.859375 Z M 7.042969 -13.90625 L 7.042969 -36.421875 C 7.042969 -36.605469 6.859375 -36.835938 6.585938 -36.835938 L 0.507812 -36.835938 C 0.230469 -36.835938 0 -36.605469 0 -36.421875 L 0 -13.90625 Z M 7.042969 -13.90625 "/></g></g></g><g fill="#ffffff" fill-opacity="1"><g transform="translate(304.012303, 203.466153)"><g><path d="M 2.296875 -8.9375 L 19.65625 -16.15625 L 2.296875 -24.40625 L 2.296875 -28 L 23.984375 -17.171875 L 23.984375 -14.875 L 2.296875 -5.34375 Z M 2.296875 -8.9375 "/></g></g></g></svg>